# xmcd
#
# Track frame offsets: 
#        150
#        21261
#        48994
#        72128
#        103592
#        127520
#        152823
#        173556
#
# Disc length: 2635 seconds
#
# Revision: 0
# Processed by: cddbd v1.5.2PL0 Copyright (c) Steve Scherf et al.
# Submitted via: ExactAudioCopy v0.99pb5
#
DISCID=580a4908
DTITLE=Julian Sas - Resurrection
DYEAR=2007
DGENRE=Blues
TTITLE0=Moving To Survive
TTITLE1=Burnin' Soul
TTITLE2=Runnin' All My Life
TTITLE3=All I Know
TTITLE4=Ain't No Change
TTITLE5=Resurrection
TTITLE6=Stranded
TTITLE7=Junkies Blues
EXTD=
EXTT0=
EXTT1=
EXTT2=
EXTT3=
EXTT4=
EXTT5=
EXTT6=
EXTT7=
PLAYORDER=
